<?xml version="1.0" standalone="no"?><!DOCTYPE svg PUBLIC "-//W3C//DTD SVG 1.1//EN" "http://www.w3.org/Graphics/SVG/1.1/DTD/svg11.dtd"><svg t="1650031894972" class="icon" viewBox="0 0 1170 1024" version="1.1" xmlns="http://www.w3.org/2000/svg" p-id="12345" width="36.5625" height="32" xmlns:xlink="http://www.w3.org/1999/xlink"><defs><style type="text/css">@font-face { font-family: feedback-iconfont; src: url("//at.alicdn.com/t/font_1031158_u69w8yhxdu.woff2?t=1630033759944") format("woff2"), url("//at.alicdn.com/t/font_1031158_u69w8yhxdu.woff?t=1630033759944") format("woff"), url("//at.alicdn.com/t/font_1031158_u69w8yhxdu.ttf?t=1630033759944") format("truetype"); }
</style></defs><path d="M585.728 6.729143a281.6 281.6 0 0 1 170.057143 506.148571 519.314286 519.314286 0 0 1 347.867428 448.658286 43.885714 43.885714 0 1 1-87.478857 7.021714 431.542857 431.542857 0 0 0-397.238857-395.190857l38.765714 305.590857-72.704 89.819429-71.314285-89.819429 36.644571-305.371428a431.542857 431.542857 0 0 0-394.678857 397.677714 43.885714 43.885714 0 0 1-87.478857-6.436571 519.460571 519.460571 0 0 1 347.721143-451.876572A281.6 281.6 0 0 1 585.728 6.802286z m0 87.771428a193.828571 193.828571 0 1 0 0 387.657143 193.828571 193.828571 0 0 0 0-387.657143z" p-id="12346"></path></svg>